# xmcd
#
# Track frame offsets: 
#        150
#        12925
#        26778
#        40972
#        54296
#        68313
#        82025
#        93966
#        108608
#        120993
#        136157
#        148635
#        163571
#        176948
#        190623
#        204529
#        217487
#        232073
#        246228
#        258139
#        271804
#        286435
#        298532
#        310790
#        324696
#        337583
#
# Disc length: 4676 seconds
#
# Revision: 1
# Processed by: cddbd v1.5.2PL0 Copyright (c) Steve Scherf et al.
# Submitted via: ExactAudioCopyFreeDBPlugin 1.0
#
DISCID=7a12421a
DTITLE=The Carter Family - In The Shadow Of Clinch Mountain - Vol. 09
DYEAR=2000
DGENRE=Bluegrass
TTITLE0=Are You Lonesome Tonight
TTITLE1=Just Another Broken Heart
TTITLE2=The Broken Down Tramp
TTITLE3=Lover's Lane
TTITLE4=Hold Fast To The Right
TTITLE5=Lord, I'm In Your Care
TTITLE6=Funny When You Feel That Way
TTITLE7=In The Shadow Of Clinch Mountain
TTITLE8=Hello Stranger
TTITLE9=Never Let The Devil Get The Upper Hand Of You
TTITLE10=When This Evening Sun Goes Down
TTITLE11=Jim Blake's Message
TTITLE12=Honey In The Rock
TTITLE13=Look How This World Has Made A Change
TTITLE14=Little Girl That Played Upon My Knee
TTITLE15=You Better Let That Liar Alone
TTITLE16=Farewell Nellie
TTITLE17=The Only Girl I Ever Cared About
TTITLE18=Goodbye To The Plains
TTITLE19=My Home's Across The Blue Ridge Mountains
TTITLE20=Dark Haired True Lover
TTITLE21=He Never Came Back
TTITLE22=Happy In Prison
TTITLE23=Walking In The King's Highway
TTITLE24=St. Regious Girl
TTITLE25=Just A Few More Days
EXTD=Bear Family CD 15865 LK
EXTT0=10-JUN-1936, New York City
EXTT1=10-JUN-1936, New York City
EXTT2=17-JUN-1937, New York City
EXTT3=17-JUN-1937, New York City
EXTT4=17-JUN-1937, New York City
EXTT5=17-JUN-1937, New York City
EXTT6=17-JUN-1937, New York City
EXTT7=17-JUN-1937, New York City
EXTT8=17-JUN-1937, New York City
EXTT9=17-JUN-1937, New York City
EXTT10=17-JUN-1937, New York City
EXTT11=17-JUN-1937, New York City
EXTT12=17-JUN-1937, New York City
EXTT13=17-JUN-1937, New York City
EXTT14=18-JUN-1937, New York City
EXTT15=18-JUN-1937, New York City
EXTT16=18-JUN-1937, New York City
EXTT17=18-JUN-1937, New York City
EXTT18=18-JUN-1937, New York City
EXTT19=18-JUN-1937, New York City
EXTT20=18-JUN-1937, New York City
EXTT21=18-JUN-1937, New York City
EXTT22=08-JUN-1938, Charlotte
EXTT23=08-JUN-1938, Charlotte
EXTT24=08-JUN-1938, Charlotte
EXTT25=08-JUN-1938, Charlotte
PLAYORDER=
